<?xml version="1.0" standalone="no"?>
<!DOCTYPE svg PUBLIC "-//W3C//DTD SVG 20010904//EN"
 "http://www.w3.org/TR/2001/REC-SVG-20010904/DTD/svg10.dtd">
<svg version="1.0" xmlns="http://www.w3.org/2000/svg"
 width="700.000000pt" height="700.000000pt" viewBox="0 0 700.000000 700.000000"
 preserveAspectRatio="xMidYMid meet">
<metadata>
Created by potrace 1.14, written by Peter Selinger 2001-2017
</metadata>
<g transform="translate(0.000000,700.000000) scale(0.100000,-0.100000)"
fill="#000000" stroke="none">
<path d="M390 6506 l0 -453 68 -64 c37 -35 112 -104 167 -154 54 -49 133 -123
176 -163 l78 -74 0 -311 0 -312 58 -55 c54 -52 111 -104 261 -242 l62 -56 0
-298 0 -297 88 -85 c48 -46 310 -304 582 -572 272 -268 563 -555 646 -636 84
-82 324 -318 533 -524 210 -206 386 -375 391 -375 5 0 185 173 401 385 215
212 456 448 534 525 79 77 344 338 590 580 246 242 507 499 581 571 l134 131
0 298 c0 291 0 298 21 316 12 10 64 58 117 106 52 49 109 101 126 116 17 16
50 47 74 69 l42 40 0 146 c1 81 0 222 0 313 l-1 166 113 105 c62 57 145 133
183 168 39 36 91 84 116 108 26 24 54 48 63 55 15 11 16 56 14 471 l-3 460
-64 -60 c-35 -32 -79 -72 -97 -89 -17 -16 -71 -66 -119 -110 -48 -44 -100 -91
-115 -105 -15 -14 -74 -68 -131 -120 -57 -52 -126 -116 -154 -142 -27 -25 -64
-59 -81 -75 -17 -15 -78 -71 -135 -124 -57 -53 -117 -108 -134 -123 -45 -42
-110 -101 -228 -210 -59 -55 -116 -107 -126 -115 -33 -29 -204 -186 -246 -226
-23 -22 -64 -60 -91 -84 -65 -59 -346 -317 -420 -386 -149 -138 -218 -201
-225 -203 -5 -2 -9 -152 -9 -334 0 -310 -1 -332 -19 -347 -24 -21 -216 -198
-305 -282 -39 -36 -83 -77 -97 -90 -15 -13 -73 -67 -130 -120 -151 -140 -173
-159 -179 -159 -5 0 -38 29 -205 183 -60 56 -136 127 -170 158 -33 31 -73 68
-90 83 -16 16 -77 71 -134 124 -57 54 -110 101 -117 105 -12 7 -14 68 -14 342
0 183 -4 335 -9 337 -5 2 -59 50 -121 108 -62 58 -121 112 -130 120 -19 17
-194 177 -249 228 -19 18 -75 70 -124 115 -138 126 -138 126 -247 227 -57 52
-111 102 -120 110 -20 18 -181 165 -225 207 -17 15 -77 71 -134 123 -57 52
-114 104 -125 115 -12 11 -73 67 -136 125 -63 58 -135 124 -160 147 -25 23
-57 52 -71 65 -14 12 -72 66 -128 118 -136 124 -142 131 -251 230 -51 47 -104
95 -116 108 -13 12 -26 22 -29 22 -3 0 -5 -204 -5 -454z"/>
<path d="M3006 4608 l0 -400 65 -60 c53 -49 224 -208 289 -268 9 -8 44 -41 78
-73 l62 -58 47 44 c27 25 64 59 83 77 34 32 201 186 309 286 l55 51 0 401 c1
354 -1 399 -14 389 -14 -11 -47 -41 -126 -113 -17 -16 -71 -65 -119 -109 -131
-119 -136 -123 -183 -167 -34 -31 -48 -38 -62 -32 -10 5 -60 48 -111 96 -52
48 -105 96 -119 108 -13 12 -69 63 -124 113 -54 51 -106 97 -115 103 -15 11
-16 -24 -15 -388z"/>
<path d="M578 1445 c-2 -1 -30 -5 -63 -8 -235 -22 -448 -222 -490 -461 -48
-276 116 -555 375 -637 89 -28 96 -29 175 -30 88 0 135 7 205 33 221 83 370
297 370 533 0 214 -123 411 -313 505 -73 36 -117 49 -224 64 -17 2 -33 3 -35
1z"/>
<path d="M3431 1437 c-222 -28 -404 -181 -476 -402 -20 -60 -27 -191 -14 -260
43 -233 226 -414 464 -460 49 -9 179 -7 208 4 15 6 27 9 27 7 0 -3 23 4 51 15
232 84 381 304 374 549 -8 336 -302 589 -634 547z"/>
<path d="M6417 1444 c-1 -2 -25 -4 -52 -5 -119 -6 -257 -72 -352 -167 -170
-171 -212 -445 -100 -656 38 -72 56 -95 122 -158 97 -93 239 -149 375 -148 95
0 111 3 190 30 219 74 371 275 383 509 14 252 -159 497 -403 570 -37 11 -158
30 -163 25z"/>
<path d="M1556 1161 c-1 -3 -2 -134 -2 -291 l1 -285 520 -1 c286 -1 527 0 535
2 13 3 15 42 14 286 -1 156 -2 286 -3 289 -1 7 -1061 7 -1065 0z"/>
<path d="M4376 881 c1 -157 2 -289 3 -292 0 -3 242 -6 536 -6 l535 0 0 292 0
291 -538 0 -537 0 1 -285z"/>
</g>
</svg>
