<svg width="900" height="300" version="1.1" viewBox="0 0 900 300" xmlns="http://www.w3.org/2000/svg" xmlns:xlink="http://www.w3.org/1999/xlink">
 <defs>
  <linearGradient id="linearGradient1515" x1="2.4085" x2="191.59" y1="71.232" y2="92.232" gradientUnits="userSpaceOnUse">
   <stop stop-color="#f0913e" offset="0"/>
   <stop stop-color="#f30053" offset="1"/>
  </linearGradient>
  <filter id="filter1529" x="-1.8775e-5" y="-1.9645e-5" width="1" height="1" color-interpolation-filters="sRGB">
   <feGaussianBlur stdDeviation="0.0014956062"/>
  </filter>
  <linearGradient id="linearGradient846" x1="2.4085" x2="191.59" y1="71.232" y2="92.232" gradientUnits="userSpaceOnUse" xlink:href="#linearGradient1515"/>
 </defs>
 <g transform="matrix(.81392 0 0 .81392 367 70.933)" fill="url(#linearGradient846)" filter="url(#filter1529)">
  <rect x="42.652" y="160" width="29.348" height="16" stroke-width=".37992"/>
  <rect x="120" y="160" width="29.525" height="16" stroke-width=".37992"/>
  <g stroke-width=".4786">
   <circle cx="96" cy="168" r="15.591"/>
   <circle cx="176" cy="168" r="15.591"/>
   <circle cx="16" cy="168" r="15.591"/>
  </g>
  <path d="m109.55 76.597v-22.062l-13.549 12.349-13.552-12.349v22.062l13.552 12.539zm6.9964-16.196-0.5563 0.51193 0.0529 17.805-20.042 18.544-20.039-18.542 0.0529-17.805-65.337-60.042v25.17l13.435 12.326v17.271l10.443 9.5799v16.278l58.846 57.882 2.5869 2.546 2.5869-2.5426 58.872-57.884v-16.279l10.443-9.5799v-17.271l13.435-12.326v-25.17z" stroke-width="1.7064"/>
 </g>
 <g fill="#7e7e7e" stroke-width=".81392" aria-label="Elite Dangerous                           Route Widget">
  <path d="m116.8 171.28v-2.1704h-9.7236v-12.155h8.2477v-2.1705h-8.2477v-11.72h9.5934v-2.1705h-11.938v30.386z"/>
  <path d="m132.81 169.11h-9.0725v-28.216h-2.3441v30.386h11.417z"/>
  <path d="m139.07 171.28v-30.386h-2.3441v30.386z"/>
  <path d="m156.73 140.9h-13.804v2.1705h5.73v28.216h2.3441v-28.216h5.73z"/>
  <path d="m172.45 171.28v-2.1704h-9.7236v-12.155h8.2477v-2.1705h-8.2477v-11.72h9.5934v-2.1705h-11.938v30.386z"/>
  <path d="m191.07 140.9h-7.0757v30.386h7.0757c4.6014 0 6.9455-2.1704 6.9455-6.4245v-17.537c0-4.2541-2.3441-6.4246-6.9455-6.4246zm4.6014 7.2059v15.975c0 3.603-1.3457 5.0355-4.775 5.0355h-4.558v-26.045h4.558c3.4293 0 4.775 1.4325 4.775 5.0354z"/>
  <path d="m215.25 171.28h2.4309l-6.8586-30.386h-2.6914l-6.7718 30.386h2.3441l1.693-7.8136h8.1609zm-9.3764-9.9407 3.603-16.756 3.603 16.756z"/>
  <path d="m223.84 171.28v-25.004l10.071 25.004h2.3007v-30.386h-2.2573v24.83l-9.9407-24.83h-2.4309v30.386z"/>
  <path d="m256.01 156.22h-7.2927v2.127h4.9486v6.0773c0 3.603-1.3457 5.0355-4.775 5.0355s-4.775-1.4325-4.775-5.0355v-16.669c0-3.603 1.3457-5.0355 4.775-5.0355s4.775 1.4325 4.775 5.0355v3.2123h2.3441v-3.9936c0-4.1673-2.3441-6.4246-6.9454-6.4246h-0.34727c-4.6014 0-6.9455 2.2573-6.9455 6.4246v18.232c0 4.3843 2.3441 6.4245 6.9455 6.4245h0.34727c4.6014 0 6.9454-2.0836 6.9454-6.4245z"/>
  <path d="m273.55 171.28v-2.1704h-9.7236v-12.155h8.2477v-2.1705h-8.2477v-11.72h9.5934v-2.1705h-11.938v30.386z"/>
  <path d="m293.3 171.28-5.2091-13.457c2.7782-0.73795 4.1673-2.7782 4.1673-6.0773v-4.4277c0-4.2541-2.3441-6.4246-6.9454-6.4246h-7.1625v30.386h2.3441v-13.11h5.2959l4.992 13.11zm-8.1609-15.237h-4.6448v-12.979h4.6448c3.4293 0 4.775 1.4325 4.775 5.0354v2.9084c0 3.5596-1.3457 5.0355-4.775 5.0355z"/>
  <path d="m297.29 146.97v18.232c0 4.2541 2.3441 6.4245 6.9455 6.4245h0.34727c4.6014 0 6.9455-2.1704 6.9455-6.4245v-18.232c0-4.2541-2.3441-6.4246-6.9455-6.4246h-0.34727c-4.6014 0-6.9455 2.127-6.9455 6.4246zm2.3441 17.45v-16.669c0-3.603 1.3457-5.0355 4.775-5.0355s4.775 1.4325 4.775 5.0355v16.669c0 3.603-1.3457 5.0355-4.775 5.0355s-4.775-1.4325-4.775-5.0355z"/>
  <path d="m330.89 140.9h-2.3441v23.528c0 3.603-1.172 5.0355-4.6014 5.0355s-4.6014-1.4325-4.6014-5.0355v-23.528h-2.3441v24.309c0 4.3843 2.2573 6.4245 6.8586 6.4245h0.17363c4.6014 0 6.8586-2.0836 6.8586-6.4245z"/>
  <path d="m349.56 151.4v-4.6014c0-4.1673-2.6046-6.2509-6.7718-6.2509h-0.0868c-4.1673 0-6.7718 2.0836-6.7718 6.2509v3.5161c0 2.4309 1.0852 3.603 3.603 5.0354l4.558 2.4743c2.3007 1.3023 3.2123 2.0836 3.2123 4.3409v2.4309c0 3.2991-1.2154 4.9052-4.5145 4.9052s-4.5146-1.6061-4.5146-4.9052v-4.2541h-2.3441v4.9486c0 4.3843 2.2139 6.3377 6.8152 6.3377h0.0868c4.6014 0 6.8152-1.9968 6.8152-6.3377v-3.9068c0-2.3007-1.5193-3.9936-3.6464-5.1223l-4.6448-2.5611c-2.3007-1.2155-3.082-1.8232-3.082-4.0805v-2.127c0-3.3425 1.2155-4.8184 4.4711-4.8184s4.4711 1.4759 4.4711 4.8184v3.9068z"/>
  <path d="m557.36 171.28-5.2091-13.457c2.7782-0.73795 4.1673-2.7782 4.1673-6.0773v-4.4277c0-4.2541-2.3441-6.4246-6.9454-6.4246h-7.1625v30.386h2.3441v-13.11h5.2959l4.992 13.11zm-8.1609-15.237h-4.6448v-12.979h4.6448c3.4293 0 4.775 1.4325 4.775 5.0354v2.9084c0 3.5596-1.3457 5.0355-4.775 5.0355z"/>
  <path d="m561.35 146.97v18.232c0 4.2541 2.3441 6.4245 6.9455 6.4245h0.34727c4.6014 0 6.9455-2.1704 6.9455-6.4245v-18.232c0-4.2541-2.3441-6.4246-6.9455-6.4246h-0.34727c-4.6014 0-6.9455 2.127-6.9455 6.4246zm2.3441 17.45v-16.669c0-3.603 1.3457-5.0355 4.775-5.0355s4.775 1.4325 4.775 5.0355v16.669c0 3.603-1.3457 5.0355-4.775 5.0355s-4.775-1.4325-4.775-5.0355z"/>
  <path d="m594.95 140.9h-2.3441v23.528c0 3.603-1.172 5.0355-4.6014 5.0355s-4.6014-1.4325-4.6014-5.0355v-23.528h-2.3441v24.309c0 4.3843 2.2573 6.4245 6.8586 6.4245h0.17364c4.6014 0 6.8586-2.0836 6.8586-6.4245z"/>
  <path d="m612.31 140.9h-13.804v2.1705h5.73v28.216h2.3441v-28.216h5.73z"/>
  <path d="m628.02 171.28v-2.1704h-9.7236v-12.155h8.2477v-2.1705h-8.2477v-11.72h9.5934v-2.1705h-11.938v30.386z"/>
  <path d="m663.01 140.9h-2.3007l-4.1239 25.611-5.1657-25.611h-2.3007l-5.2091 25.611-4.0805-25.611h-2.4309l5.1223 30.386h2.3875l5.3393-25.785 5.2959 25.785h2.3441z"/>
  <path d="m669.52 171.28v-30.386h-2.3441v30.386z"/>
  <path d="m682.55 140.9h-7.0757v30.386h7.0757c4.6014 0 6.9455-2.1704 6.9455-6.4245v-17.537c0-4.2541-2.3441-6.4246-6.9455-6.4246zm4.6014 7.2059v15.975c0 3.603-1.3457 5.0355-4.775 5.0355h-4.558v-26.045h4.558c3.4293 0 4.775 1.4325 4.775 5.0354z"/>
  <path d="m709.11 156.22h-7.2927v2.127h4.9486v6.0773c0 3.603-1.3457 5.0355-4.775 5.0355s-4.775-1.4325-4.775-5.0355v-16.669c0-3.603 1.3457-5.0355 4.775-5.0355s4.775 1.4325 4.775 5.0355v3.2123h2.3441v-3.9936c0-4.1673-2.3441-6.4246-6.9454-6.4246h-0.34728c-4.6014 0-6.9454 2.2573-6.9454 6.4246v18.232c0 4.3843 2.3441 6.4245 6.9454 6.4245h0.34728c4.6014 0 6.9454-2.0836 6.9454-6.4245z"/>
  <path d="m726.65 171.28v-2.1704h-9.7236v-12.155h8.2477v-2.1705h-8.2477v-11.72h9.5934v-2.1705h-11.938v30.386z"/>
  <path d="m742.97 140.9h-13.804v2.1705h5.73v28.216h2.3441v-28.216h5.73z"/>
 </g>
</svg>
