<?xml version="1.0" encoding="UTF-8" standalone="no"?>
<svg
   xmlns:dc="http://purl.org/dc/elements/1.1/"
   xmlns:cc="http://creativecommons.org/ns#"
   xmlns:rdf="http://www.w3.org/1999/02/22-rdf-syntax-ns#"
   xmlns:svg="http://www.w3.org/2000/svg"
   xmlns="http://www.w3.org/2000/svg"
   xmlns:xlink="http://www.w3.org/1999/xlink"
   xmlns:sodipodi="http://sodipodi.sourceforge.net/DTD/sodipodi-0.dtd"
   xmlns:inkscape="http://www.inkscape.org/namespaces/inkscape"
   viewBox="0 0 191.99999 192"
   version="1.1"
   id="svg12"
   sodipodi:docname="edrw-inkscape.svg"
   width="192"
   height="192"
   inkscape:version="1.0.2-2 (e86c870879, 2021-01-15)">
  <metadata
     id="metadata18">
    <rdf:RDF>
      <cc:Work
         rdf:about="">
        <dc:format>image/svg+xml</dc:format>
        <dc:type
           rdf:resource="http://purl.org/dc/dcmitype/StillImage" />
        <dc:title></dc:title>
      </cc:Work>
    </rdf:RDF>
  </metadata>
  <defs
     id="defs16">
    <linearGradient
       inkscape:collect="always"
       id="linearGradient1513">
      <stop
         style="stop-color:#f0913e;stop-opacity:1"
         offset="0"
         id="stop1511" />
      <stop
         style="stop-color:#f30053;stop-opacity:1"
         offset="1"
         id="stop1509" />
    </linearGradient>
    <linearGradient
       inkscape:collect="always"
       xlink:href="#linearGradient1513"
       id="linearGradient1515"
       x1="2.4085398"
       y1="71.232155"
       x2="191.59146"
       y2="92.232152"
       gradientUnits="userSpaceOnUse" />
    <filter
       inkscape:collect="always"
       style="color-interpolation-filters:sRGB"
       id="filter1529"
       x="-1.8774977e-05"
       width="1.0000375"
       y="-1.9644714e-05"
       height="1.0000393">
      <feGaussianBlur
         inkscape:collect="always"
         stdDeviation="0.0014956062"
         id="feGaussianBlur1531" />
    </filter>
  </defs>
  <sodipodi:namedview
     pagecolor="#ffffff"
     bordercolor="#666666"
     borderopacity="1"
     objecttolerance="10"
     gridtolerance="10"
     guidetolerance="10"
     inkscape:pageopacity="0"
     inkscape:pageshadow="2"
     inkscape:window-width="1920"
     inkscape:window-height="1137"
     id="namedview14"
     showgrid="true"
     inkscape:zoom="1"
     inkscape:cx="321.61991"
     inkscape:cy="-33.936396"
     inkscape:window-x="-8"
     inkscape:window-y="112"
     inkscape:window-maximized="1"
     inkscape:current-layer="svg12">
    <inkscape:grid
       type="xygrid"
       id="grid173"
       enabled="false"
       originx="0"
       originy="0"
       dotted="false"
       spacingx="7.9999998"
       spacingy="7.9999998"
       empspacing="6" />
  </sodipodi:namedview>
  <rect
     style="fill:#e6e6e6;stroke:none;stroke-width:1.686;stroke-miterlimit:4;stroke-dasharray:none;stroke-opacity:1"
     id="rect1385"
     width="192"
     height="192"
     x="480"
     y="0" />
  <rect
     style="fill:#333333;stroke:none;stroke-width:1.686;stroke-miterlimit:4;stroke-dasharray:none;stroke-opacity:1"
     id="rect1383"
     width="192"
     height="192"
     x="240"
     y="0" />
  <g
     id="surface1"
     transform="matrix(0.44495505,0,0,0.44495505,215.66365,-304.22168)"
     style="fill:#000000">
    <path
       style="fill:#000000;fill-opacity:1;fill-rule:evenodd;stroke:none"
       d="m 157.63672,127.12109 c 0.11719,-3.6289 3.3125,-11.9414 3.74219,-18.26171 1.48437,-0.9336 2.96484,-1.8711 4.44921,-2.8086 -0.67187,-9.179686 -1.74609,-18.167967 -3.04296,-27.035155 -1.48438,6.515625 -1.09375,14.433594 -1.64063,21.652345 -1.16797,-0.66406 -2.33984,-1.328126 -3.50781,-1.992189 -1.17188,0.664063 -2.34375,1.328129 -3.51172,1.992189 -0.54688,-7.218751 -0.15625,-15.13672 -1.64063,-21.652345 -1.29687,8.867188 -2.36718,17.855469 -3.04296,27.035155 1.48437,0.9375 2.96484,1.875 4.44921,2.8086 0.42969,6.32031 3.62891,14.63281 3.7461,18.26171"
       id="path20" />
    <path
       style="fill:#000000;fill-opacity:1;fill-rule:evenodd;stroke:none"
       d="m 157.67969,127.25781 8.21093,-5.87109 h 14.33204 l -3.78125,-3.08594 -9.95313,-1.14453 v -2.28906 c 0,-2.20703 4.33984,0.0469 6.62109,-0.89844 -1.9414,-1.14453 -3.57421,-3.53516 -5.82421,-3.43359 -1.875,0.0859 -3.33985,2.16015 -4.07813,3.88281 z m 0,0"
       id="path22" />
    <path
       style="fill:#000000;fill-opacity:1;fill-rule:evenodd;stroke:none"
       d="m 157.58984,127.25781 -8.21093,-5.87109 h -14.33204 l 3.78125,-3.08594 9.95313,-1.14453 v -2.28906 c 0,-2.20703 -4.33984,0.0469 -6.61719,-0.89844 1.9375,-1.14453 3.57031,-3.53516 5.82031,-3.43359 1.875,0.0859 3.33985,2.16015 4.08204,3.88281 z m 0,0"
       id="path24" />
    <path
       style="fill:#000000;fill-opacity:1;fill-rule:evenodd;stroke:none"
       d="m 157.63672,158.73828 5.6875,-25.97656 6.34375,-6.41797 -12.03125,4.10547 -12.03516,-4.10547 6.34766,6.41797 z m 0,0"
       id="path26" />
    <path
       style="fill:#000000;fill-opacity:1;fill-rule:evenodd;stroke:none"
       d="m 158.60547,169.89844 8.11328,-34.71485 6.57422,-8.11328 c 7.08594,-0.48047 13.40625,0.58594 19.41406,-2.77343 2.70703,-1.51563 4.00391,-6.41797 2.97656,-9.34766 -1.54297,-4.39453 -4.55468,-7.66797 -8.93359,-11.08984 l 0.20312,-8.42188 58.64454,-46.628906 c -0.30469,10.78125 -1.85547,23.582031 -10.16797,30.195312 L 215.8125,94.613281 c -3.67578,2.925782 -5.69922,10.363279 -2.56641,13.867189 l 7.80469,8.73047 c 1.37109,1.53125 1.33984,4.92969 -0.30469,6.16015 z m 0,0"
       id="path28" />
    <path
       style="fill:#000000;fill-opacity:1;fill-rule:evenodd;stroke:none"
       d="m 156.66406,169.89844 -8.11328,-34.71485 -6.57422,-8.11328 c -7.08594,-0.48047 -13.40234,0.58594 -19.41015,-2.77343 -2.71094,-1.51563 -4.00782,-6.41797 -2.98047,-9.34766 1.54297,-4.39453 4.55469,-7.66797 8.9375,-11.08984 L 128.31641,95.4375 69.671875,48.808594 c 0.308594,10.78125 1.855469,23.582031 10.167969,30.195312 l 19.617187,15.609375 c 3.675779,2.925782 5.699219,10.363279 2.566409,13.867189 l -7.80469,8.73047 c -1.371094,1.53125 -1.339844,4.92969 0.308594,6.16015 z m 0,0"
       id="path30" />
    <path
       style="fill:#000000;fill-opacity:1;fill-rule:evenodd;stroke:none"
       d="m 235.90625,82.613281 0.13672,11.117188 c 0.0234,1.914062 -0.74219,4.097656 -2.23828,5.289062 l -14.71094,11.726559 -3.66016,-4.8125 c -1.625,-2.14062 -1.09375,-6.335934 1.01563,-7.999996 z m 0,0"
       id="path32" />
    <path
       style="fill:#000000;fill-opacity:1;fill-rule:evenodd;stroke:none"
       d="m 79.363281,82.613281 -0.136718,11.117188 c -0.02344,1.914062 0.742187,4.097656 2.238281,5.289062 l 14.710937,11.726559 3.660157,-4.8125 c 1.628902,-2.14062 1.093752,-6.335934 -1.015625,-7.999996 z m 0,0"
       id="path34" />
    <path
       style="fill:#000000;fill-opacity:1;fill-rule:evenodd;stroke:none"
       d="M 248.53906,51.847656 314.25781,1 c 0.28906,12.664063 -4.82422,26.386719 -14.39062,34.25 l -23.69532,19.476563 -0.0976,3.933593 14.87109,-11.609375 c 0.0625,10.617188 -3.5625,21.941407 -11.32031,28.6875 L 256.88672,95.5 v 3.648438 l 12.47265,-9.980469 c 1.25,10.382812 -3.72656,20.167971 -11.1289,26.000001 l -53.4375,42.11719 c -2.9336,2.3125 -5.38281,6.15234 -5.27735,9.88281 l 0.19141,6.90625 c 0.0586,2.1875 -1.27344,4.47656 -2.97266,5.85547 l -23.60156,19.08984 -12.76172,-25.80859 63.51172,-48.35156 1.34375,-7.48438 -3.93359,-4.60547 13.14453,-9.97656 4.41406,-7.964845 0.19141,-15.253906 c 5.45703,-4.546875 9.41406,-12.171875 9.49609,-27.726563"
       id="path36" />
    <path
       style="fill:#000000;fill-opacity:1;fill-rule:evenodd;stroke:none"
       d="M 66.730469,51.847656 1.011719,1 C 0.722656,13.664063 5.835938,27.386719 15.402344,35.25 l 23.695312,19.476563 0.09766,3.933593 -14.871094,-11.609375 c -0.0625,10.617188 3.5625,21.941407 11.320312,28.6875 L 58.382813,95.5 v 3.648438 L 45.910156,89.167969 c -1.25,10.382812 3.726563,20.167971 11.128907,26.000001 l 53.441407,42.11719 c 2.92969,2.3125 5.37891,6.15234 5.27344,9.88281 l -0.19141,6.90625 c -0.0586,2.1875 1.27344,4.47656 2.97656,5.85547 l 23.60156,19.08984 12.75782,-25.80859 -63.511721,-48.35156 -1.34375,-7.48438 3.933594,-4.60547 -13.144532,-9.97656 -4.410156,-7.964845 -0.195312,-15.253906 C 70.769531,75.027344 66.8125,67.402344 66.730469,51.847656"
       id="path38" />
    <path
       style="fill:#000000;fill-opacity:1;fill-rule:evenodd;stroke:none"
       d="m 236.01172,136.72266 -30.2461,23.58593 c -1.82812,1.42578 -3.32812,3.78907 -3.32812,6.10547 v 9.15625 l 29.50391,-23.76953 c 2.03125,-1.63672 3.70312,-4.23828 3.79296,-6.84375 z m 0,0"
       id="path40" />
    <path
       style="fill:#000000;fill-opacity:1;fill-rule:evenodd;stroke:none"
       d="m 79.257813,136.72266 30.246097,23.58593 c 1.82812,1.42578 3.32812,3.78907 3.32812,6.10547 v 9.15625 L 83.328125,151.80078 c -2.03125,-1.63672 -3.703125,-4.23828 -3.792969,-6.84375 z m 0,0"
       id="path42" />
    <path
       style="fill:#000000;fill-opacity:1;fill-rule:evenodd;stroke:none"
       d="m 157.63672,189.12109 -3.73828,4.65625 -3.40625,17.11719 -7.8125,-5.98437 14.95703,-28.83594 14.95312,28.83594 -7.80859,5.98437 -3.41016,-17.11719 z m 0,0"
       id="path44" />
    <path
       style="fill:#000000;fill-opacity:1;fill-rule:evenodd;stroke:none"
       d="m 152.73828,239.98047 c -0.65234,-1.49219 -0.40625,-4.85938 0.16406,-6.01953 0.56641,-1.16016 1.16407,-1.63672 1.98828,-2.21094 -2.86328,-2.30469 -5.57421,-4.72656 -4.23046,-11.1875 l 5.23437,-25.125 1.74219,-2.82422 1.74219,2.82422 5.23046,25.125 c 1.34375,6.46094 -1.36718,8.88281 -4.23046,11.1875 0.82421,0.57422 1.42187,1.05078 1.99218,2.21094 0.56641,1.16015 0.81641,4.52734 0.16016,6.01953 -1.82031,4.15625 -7.97266,4.15625 -9.79297,0"
       id="path46" />
  </g>
  <path
     id="path2-0-2"
     d="m -104.10816,-157.13455 c -15.31071,0 -29.09994,6.94953 -38.3298,17.91678 -7.2753,8.68693 -11.7282,19.97952 -11.7282,32.14121 0,9.44703 1.84555,17.048098 4.99456,23.889058 5.09966,11.26176 14.09629,21.141146 22.82226,32.444496 l -0.019,0.0234 c 2.82326,3.69195 5.75553,7.92766 8.57879,12.27113 10.20714,15.74507 7.38473,25.08308 13.89992,25.08308 6.515213,0 3.69069,-9.44831 13.897833,-25.19336 16.72232,-26.16937 36.16018,-38.005303 36.16018,-68.409554 0,-8.36116 -2.06442,-16.17813 -5.64778,-23.12768 -6.08086,-11.7274 -16.61375,-20.63278 -29.31838,-24.65049 -4.77781,-1.52022 -9.98954,-2.38805 -15.310313,-2.38805 z M -104,-126.18737 c 10.641493,0 19.221103,8.5775 19.221103,19.21898 0,4.29687 -1.48437,8.308431 -3.9193,11.545812 l -1.23009,1.459131 c -3.60485,3.575585 -8.81383,6.107997 -14.071713,6.107997 -10.64149,0 -19.219,-8.579612 -19.219,-19.22111 0,-4.66923 1.6284,-9.01141 4.45163,-12.269 3.58337,-4.1263 8.79511,-6.84181 14.76737,-6.84181 z"
     style="stroke-width:1.08587" />
  <path
     id="path469"
     style="stroke-width:1.08587"
     d="m 20.782219,-157.46675 c -0.13882,6.08182 2.3179,12.67099 6.91211,16.44727 l 11.378899,9.35351 0.0469,1.88867 -7.14063,-5.57421 c -0.03,5.09882 1.70992,10.53757 5.43555,13.77734 l 8.92969,7.75976 c 0.90929,-6.31994 3.01499,-12.28739 6.060541,-17.63671 -0.024,-0.52491 -0.0575,-1.02977 -0.0605,-1.59766 z m 31.62304,26.01563 c 0.29151,6.3797 2.07658,9.70115 4.49805,11.71875 l 0.0937,7.32617 2.11914,3.82422 6.3125,4.79101 -1.88867,2.21094 0.64453,3.595703 30.50195,23.220706 -6.12695,12.394532 -11.33594,-9.167969 c -0.81791,-0.66221 -1.45583,-1.76197 -1.42773,-2.8125 l 0.0918,-3.316407 c 0.0506,-1.791529 -1.12624,-3.635533 -2.5332,-4.746093 L 47.690378,-102.63862 c -0.64092,-0.50496 -1.24233,-1.07444 -1.79688,-1.69336 0.29009,8.336703 2.05925,15.232257 4.933601,21.476562 5.09967,11.26176 14.09629,21.140015 22.82226,32.443361 l -0.0195,0.02344 c 2.82326,3.691952 5.75682,7.928012 8.58008,12.271482 10.20714,15.74507 7.3852,25.08399 13.90039,25.08399 6.515211,0 3.68934,-9.44831 13.896491,-25.19336 16.29426,-25.499487 35.15775,-37.398467 36.11328,-66.119155 -0.5581,0.62456 -1.16466,1.19816 -1.81055,1.70704 l -25.66211,20.226562 c -1.40884,1.11056 -2.58586,2.954564 -2.53516,4.746093 l 0.0918,3.316407 c 0.0281,1.05053 -0.6117,2.15029 -1.42773,2.8125 l -11.33399,9.167969 -6.128901,-12.394532 30.501951,-23.220706 0.64453,-3.595703 -1.88867,-2.21094 6.3125,-4.79101 2.11914,-3.82422 0.0918,-7.32617 c 2.42073,-2.01699 4.20741,-5.33698 4.5,-11.71289 -0.4431,-0.77955 -0.90214,-1.54704 -1.38477,-2.29883 -0.20006,5.00822 -1.0502,10.71554 -4.84961,13.73828 l -9.42187,7.49609 c -1.76526,1.40508 -2.73694,4.97549 -1.23243,6.65821 l 3.74805,4.19335 c 0.65845,0.73537 0.64524,2.368083 -0.14453,2.958993 l -29.843751,22.343749 2.67969,-11.466797 c -0.61639,0.113934 -1.23733,0.194127 -1.86133,0.242188 l -1.2832,5.865234 -1.28321,-5.855468 c -0.63098,-0.04126 -1.24675,-0.130159 -1.85937,-0.230469 l 2.67578,11.445312 -29.8418,-22.343749 c -0.79165,-0.59091 -0.80689,-2.223623 -0.14844,-2.958993 l 3.75,-4.19335 c 1.50451,-1.68272 0.5309,-5.25313 -1.23437,-6.65821 l -9.41992,-7.49609 c -3.80286,-3.02548 -4.64909,-8.74048 -4.84961,-13.75195 -0.48394,0.75363 -0.94017,1.52572 -1.38477,2.30664 z m 1.38477,-2.30664 c 0.10227,-0.15928 0.21242,-0.3127 0.3164,-0.47071 l -0.3496,-0.27929 c 0.007,0.24533 0.0232,0.50072 0.0332,0.75 z m 0.3164,-0.47071 24.42579,19.41797 c 0.70794,-1.5322 1.61243,-2.94914 2.69921,-4.20312 3.58336,-4.1263 8.79531,-6.8418 14.76758,-6.8418 7.730151,0 14.354381,4.53617 17.410161,11.0918 l 24.48633,-19.4668 c -6.2639,-9.51248 -15.65718,-16.69352 -26.69336,-20.18359 -4.77781,-1.52022 -9.98978,-2.38868 -15.310551,-2.38868 -15.31071,0 -29.10022,6.94877 -38.33008,17.91602 -1.23799,1.4782 -2.38857,3.03766 -3.45508,4.6582 z m 83.789071,-0.002 c 0.10615,0.16121 0.21011,0.32379 0.31445,0.48633 0.0101,-0.25387 0.0261,-0.51387 0.0332,-0.76367 z m -24.48633,19.4668 -3.33008,2.64844 -0.0977,4.04492 c 2.10294,1.64333 3.55002,3.21573 4.29102,5.32617 0.15068,0.42968 0.18568,0.94945 0.14062,1.48242 0.51324,-1.71382 0.80665,-3.51451 0.80665,-5.375 0,-2.91134 -0.65968,-5.65796 -1.81055,-8.12695 z m 1.0039,13.50195 c -0.2423,0.80913 -0.52665,1.601823 -0.86914,2.365243 0.49241,-0.62986 0.79684,-1.509953 0.86914,-2.365243 z m -0.86914,2.365243 c -0.20548,0.26284 -0.43529,0.49176 -0.70117,0.64062 -2.8852,1.61332 -5.91929,1.10129 -9.32226,1.33203 l -3.15821,3.896487 -1.216791,5.205078 c 4.136681,-0.764632 8.044541,-2.952695 10.925781,-5.810546 l 1.23047,-1.458989 c 0.88288,-1.17385 1.63469,-2.45057 2.24218,-3.80468 z M 78.532219,-114.81055 c -1.13116,2.44815 -1.75196,5.19456 -1.75196,8.06641 0,1.92344 0.28855,3.77516 0.81055,5.52539 -0.0514,-0.54812 -0.018,-1.08412 0.13672,-1.52539 0.741,-2.11044 2.1862,-3.68284 4.29101,-5.32617 l -0.0976,-4.04492 z m -0.94141,13.5918 c 0.0789,0.84112 0.3815,1.701163 0.86523,2.320313 -0.33482,-0.75026 -0.62726,-1.522403 -0.86523,-2.320313 z m 0.86523,2.320313 c 2.58446,5.791216 7.9406,10.039627 14.40235,11.09766 l -1.22071,-5.226563 -3.1582,-3.896487 c -3.40297,-0.23074 -6.43511,0.28129 -9.32031,-1.33203 -0.267,-0.14927 -0.497,-0.37875 -0.70313,-0.64258 z m 16.26172,11.328129 c 0.42377,0.02771 0.85028,0.04687 1.28125,0.04687 0.42924,0 0.85742,-0.0237 1.28516,-0.05664 l 1.44726,-6.609379 3.046881,-3.08203 -5.777341,1.97071 -5.7793,-1.97071 3.04687,3.08203 z m 44.876961,-43.875002 c 0.3157,0.55543 0.63077,1.11269 0.92578,1.68164 2.53888,4.92389 4.29343,10.28894 5.11328,15.96875 l 8.95117,-7.7793 c 3.72563,-3.23977 5.46557,-8.67852 5.43555,-13.77734 l -7.14063,5.57422 0.0469,-1.88868 11.3789,-9.35351 c 4.59419,-3.77628 7.05093,-10.36545 6.91211,-16.44727 l -31.5625,24.41797 c -0.003,0.56997 -0.0364,1.07685 -0.0605,1.60352 z m 6.03906,17.65039 -1.96875,1.71094 v 1.75195 l 2.18945,-1.75195 c -0.0626,-0.57396 -0.13876,-1.14327 -0.2207,-1.71094 z m 0.2207,1.71094 c 0.19519,1.78857 0.3125,3.60222 0.3125,5.44726 0,0.77829 -0.0218,1.53651 -0.0469,2.29102 2.51358,-2.81291 4.02639,-6.69899 3.53515,-10.7793 z m -99.960942,7.75195 c -0.0277,-0.79659 -0.0605,-1.58816 -0.0605,-2.41211 0,-1.80502 0.10993,-3.58855 0.30078,-5.34961 l -3.78906,-3.03125 c -0.49208,4.0873 1.02751,7.97894 3.54882,10.79297 z m 0.24024,-7.76172 2.20117,1.76172 v -1.75195 l -1.99023,-1.73047 c -0.0821,0.57046 -0.14852,1.14473 -0.21094,1.7207 z M 93.526359,-120 c -0.62282,4.2584 -1.1364,8.57394 -1.46094,12.98242 0.71286,0.45022 1.42386,0.90126 2.13672,1.34961 0.20635,3.03528 1.74255,7.026783 1.79883,8.769533 0.0563,-1.74275 1.59052,-5.734253 1.79687,-8.769533 0.71286,-0.44835 1.42386,-0.89939 2.13672,-1.34961 -0.32266,-4.40848 -0.83812,-8.72402 -1.46094,-12.98242 -0.71286,3.12908 -0.52642,6.92974 -0.78906,10.39648 -0.56091,-0.31891 -1.12268,-0.63616 -1.68359,-0.95507 -0.56279,0.31891 -1.12659,0.63616 -1.6875,0.95507 -0.26264,-3.46674 -0.0743,-7.2674 -0.78711,-10.39648 z m -35.11524,1.72656 9.34375,7.35742 c 1.01302,0.79916 1.27055,2.81379 0.48828,3.8418 l -1.75781,2.3125 -7.06641,-5.63281 c -0.71849,-0.57216 -1.08541,-1.61985 -1.07421,-2.53906 z m 75.177741,0 0.0664,5.33985 c 0.0112,0.91921 -0.35769,1.9669 -1.07617,2.53906 l -7.06445,5.63281 -1.75781,-2.3125 c -0.78039,-1.02801 -0.52473,-3.04265 0.48828,-3.8418 z m -42.222661,13.41016 c -1.08054,-0.0488 -1.8664,1.09879 -2.79687,1.64844 1.09368,0.45399 3.17773,-0.62827 3.17773,0.43164 v 1.09961 l -4.7793,0.54882 -1.8164,1.482433 h 6.88281 l 3.94336,2.82031 L 93.325179,-103 c -0.35643,-0.82729 -1.05852,-1.82202 -1.95898,-1.86328 z m 9.267581,0 c -0.900461,0.0413 -1.602481,1.03599 -1.957031,1.86328 l -2.65625,6.167973 3.94336,-2.82031 h 6.882811 l -1.81445,-1.482433 -4.78125,-0.54882 v -1.09961 c 0,-1.05991 2.08411,0.0223 3.17968,-0.43164 -0.93235,-0.54965 -1.71633,-1.69722 -2.79687,-1.64844 z m -42.273441,12.576175 14.52539,11.326172 c 0.87794,0.68472 1.59766,1.8192 1.59766,2.93164 v 4.398438 l -14.16797,-11.416016 c -0.97549,-0.78602 -1.77917,-2.035849 -1.82227,-3.287109 z m 75.279301,0 -0.13281,3.953125 c -0.0431,1.25126 -0.84678,2.501089 -1.82227,3.287109 l -14.16797,11.416016 v -4.398438 c 0,-1.11244 0.71972,-2.24692 1.59766,-2.93164 z m -37.638671,18.898437 7.181641,13.847656 -3.750001,2.873048 -1.63868,-8.218751 -1.79296,-2.236328 -1.79493,2.236328 -1.63671,8.218751 -3.75196,-2.873048 z m 0,7.941406 0.83593,1.357422 2.51172,12.066406 c 0.64532,3.102822 -0.65618,4.264292 -2.03125,5.371092 0.39582,0.27576 0.68315,0.50534 0.95703,1.0625 0.27204,0.55716 0.39133,2.17403 0.0762,2.89063 -0.87418,1.99601 -3.82893,1.99601 -4.70312,0 -0.31326,-0.7166 -0.19381,-2.33347 0.0801,-2.89063 0.27201,-0.55716 0.55926,-0.78674 0.95508,-1.0625 -1.37507,-1.1068 -2.67853,-2.26827 -2.03321,-5.371092 l 2.51563,-12.066406 z" />
  <path
     id="path475"
     style="stroke-width:1.08587"
     d="m 210.30859,-157.46578 c -0.13882,6.08182 2.31791,12.67099 6.91211,16.44727 l 11.3789,9.35351 0.0469,1.88867 -7.14063,-5.57422 c -0.03,5.09882 1.70992,10.53758 5.43555,13.77735 l 8.92969,7.75976 c 0.9092,-6.3211 3.01433,-12.2885 6.06054,-17.63867 -0.0239,-0.52431 -0.0576,-1.02851 -0.0605,-1.5957 z m 31.62304,26.01367 c 0.29123,6.38097 2.07634,9.7029 4.49805,11.72071 l 0.0937,7.32617 2.11914,3.82422 6.3125,4.79101 -1.88867,2.21094 0.64453,3.595701 30.50195,23.220703 -6.12695,12.39453 -11.33593,-9.16797 c -0.81791,-0.66221 -1.45584,-1.76197 -1.42774,-2.8125 l 0.0918,-3.3164 c 0.0507,-1.79153 -1.12624,-3.63554 -2.53321,-4.7461 l -25.66401,-20.226554 c -0.64091,-0.50496 -1.24233,-1.07444 -1.79687,-1.69336 0.29015,8.336441 2.0593,15.230444 4.93359,21.474604 5.09967,11.26176 14.09629,21.14196 22.82226,32.44532 l -0.0176,0.0234 c 2.82325,3.69195 5.75487,7.92802 8.57812,12.27148 10.20715,15.74507 7.3852,25.08204 13.90039,25.08204 6.5152,0 3.68935,-9.44831 13.89649,-25.19336 16.29462,-25.50007 35.16049,-37.39707 36.11523,-66.119154 -0.5586,0.62536 -1.1659,1.19955 -1.8125,1.70899 l -25.66211,20.226554 c -1.40884,1.11056 -2.58585,2.95457 -2.53515,4.7461 l 0.0918,3.3164 c 0.0281,1.05053 -0.61171,2.15029 -1.42774,2.8125 l -11.33398,9.16797 -6.12891,-12.39453 30.50195,-23.220703 0.64454,-3.595701 -1.88868,-2.21094 6.3125,-4.79101 2.11914,-3.82422 0.0918,-7.32617 c 2.42122,-2.0174 4.20797,-5.33836 4.5,-11.7168 -0.44275,-0.77885 -0.90254,-1.54573 -1.38476,-2.29688 -0.19992,5.0087 -1.04971,10.7171 -4.84961,13.74024 l -9.42188,7.49609 c -1.76526,1.40508 -2.73693,4.97548 -1.23242,6.6582 l 3.74805,4.19336 c 0.65845,0.73537 0.64524,2.368081 -0.14453,2.958991 l -29.84375,22.343743 3.89648,-16.671873 3.15821,-3.89649 c 3.40297,-0.23074 6.43706,0.2813 9.32226,-1.33202 1.30003,-0.72786 1.92307,-3.081321 1.42969,-4.488281 -0.741,-2.11044 -2.18808,-3.68285 -4.29102,-5.32618 l 0.0977,-4.04492 27.81641,-22.11718 c -6.26393,-9.51237 -15.65727,-16.6935 -26.6934,-20.18356 -4.77781,-1.52022 -9.98978,-2.38867 -15.31055,-2.38867 -15.3107,0 -29.10023,6.95072 -38.33008,17.91797 -1.23833,1.47861 -2.38636,3.03717 -3.45312,4.6582 l 27.8125,22.11328 0.0977,4.04492 c -2.10481,1.64333 -3.55001,3.21574 -4.29101,5.32618 -0.49338,1.40696 0.12973,3.760421 1.43164,4.488281 2.8852,1.61332 5.91734,1.10128 9.32031,1.33202 l 3.1582,3.89649 3.89648,16.671873 -29.84179,-22.343743 c -0.79165,-0.59091 -0.80688,-2.223621 -0.14843,-2.958991 l 3.75,-4.19336 c 1.50451,-1.68272 0.53089,-5.25312 -1.23438,-6.6582 l -9.41992,-7.49609 c -3.80286,-3.02549 -4.6491,-8.74047 -4.84961,-13.75196 -0.48318,0.75255 -0.94081,1.52495 -1.38477,2.30469 z m 1.38477,-2.30469 c 0.10246,-0.15958 0.21418,-0.31238 0.31836,-0.4707 l -0.35156,-0.2793 c 0.007,0.24533 0.0232,0.50074 0.0332,0.75 z m 84.10547,-0.4746 c 0.10615,0.16121 0.2101,0.32378 0.31445,0.48632 0.0101,-0.25321 0.0262,-0.51256 0.0332,-0.76172 z m 1.69922,2.7832 c 0.31613,0.55612 0.63039,1.11392 0.92578,1.68359 2.53861,4.92337 4.29526,10.28961 5.11523,15.96875 l 8.94922,-7.77734 c 3.72563,-3.23977 5.46557,-8.67853 5.43555,-13.77735 l -7.14063,5.57422 0.0469,-1.88867 11.3789,-9.35351 c 4.59419,-3.77628 7.05093,-10.36545 6.91211,-16.44727 l -31.56252,24.41797 c -0.003,0.56858 -0.0365,1.07412 -0.0606,1.59961 z m 6.04101,17.65234 -1.9707,1.71289 v 1.75196 l 2.19141,-1.75391 c -0.0627,-0.57393 -0.13875,-1.14329 -0.22071,-1.71094 z m 0.22071,1.71094 c 0.19532,1.78918 0.31054,3.60353 0.31054,5.44922 0,0.77762 -0.0199,1.53518 -0.0449,2.28906 2.51248,-2.81274 4.02433,-6.69803 3.53321,-10.77734 z m -99.96289,7.75391 c -0.0277,-0.79678 -0.0605,-1.58991 -0.0605,-2.41407 0,-1.80477 0.10998,-3.58683 0.30078,-5.34765 l -3.78911,-3.03125 c -0.49208,4.0873 1.02751,7.97893 3.54883,10.79297 z m 0.24023,-7.76172 2.20117,1.76172 v -1.75196 l -1.99023,-1.73047 c -0.082,0.57006 -0.14858,1.14515 -0.21094,1.72071 z m 47.39258,-7.90625 c 0.71281,3.12908 0.52447,6.92973 0.78711,10.39648 0.56091,-0.31891 1.12471,-0.63617 1.6875,-0.95508 0.56091,0.31891 1.12268,0.63617 1.68359,0.95508 0.26264,-3.46675 0.0762,-7.2674 0.78906,-10.39648 0.62282,4.2584 1.13828,8.57394 1.46094,12.98242 -0.71286,0.45022 -1.42386,0.90126 -2.13672,1.34961 -0.20635,3.03528 -1.74057,7.026771 -1.79687,8.769531 -0.0563,-1.74276 -1.59248,-5.734251 -1.79883,-8.769531 -0.71286,-0.44835 -1.42386,-0.89939 -2.13672,-1.34961 0.32454,-4.40848 0.83812,-8.72402 1.46094,-12.98242 z m -35.11524,1.72656 9.34375,7.35742 c 1.01302,0.79915 1.27055,2.81379 0.48829,3.8418 l -1.75782,2.3125 -7.0664,-5.63281 c -0.71849,-0.57216 -1.08542,-1.61986 -1.07422,-2.53907 z m 75.17774,0 0.0664,5.33984 c 0.0112,0.91921 -0.35769,1.96691 -1.07617,2.53907 l -7.06446,5.63281 -1.75781,-2.3125 c -0.78039,-1.02801 -0.52473,-3.04265 0.48828,-3.8418 z m -42.22266,13.41016 c 0.90046,0.0413 1.60256,1.03599 1.95899,1.86328 l 2.65234,6.167961 -3.94336,-2.82031 h -6.88281 l 1.81641,-1.482421 4.77929,-0.54883 v -1.09961 c 0,-1.05991 -2.08405,0.0224 -3.17773,-0.43164 0.93047,-0.54965 1.71633,-1.69723 2.79687,-1.64843 z m 9.26758,0 c 1.08054,-0.0488 1.86452,1.09878 2.79687,1.64843 -1.09557,0.45394 -3.17968,-0.62827 -3.17968,0.43164 v 1.09961 l 4.78125,0.54883 1.81445,1.482421 h -6.88281 l -3.94336,2.82031 2.65625,-6.167961 c 0.35455,-0.82729 1.05657,-1.82198 1.95703,-1.86328 z m -10.41211,7.591791 5.7793,1.9707 5.77734,-1.9707 -3.04688,3.08203 -2.73046,12.474613 -2.73242,-12.474613 z m -31.86133,4.98437 14.52539,11.326183 c 0.87794,0.68471 1.59766,1.8192 1.59766,2.93164 v 4.39843 l -14.16797,-11.41601 c -0.97549,-0.78602 -1.77917,-2.03585 -1.82226,-3.28711 z m 75.2793,0 -0.13281,3.953133 c -0.0431,1.25126 -0.84678,2.50109 -1.82227,3.28711 l -14.16797,11.41601 v -4.39843 c 0,-1.11244 0.71972,-2.24693 1.59766,-2.93164 z m -37.63867,18.898443 7.18164,13.84766 -3.75,2.87305 -1.63868,-8.21876 -1.79296,-2.23632 -1.79492,2.23632 -1.63672,8.21876 -3.75195,-2.87305 z m 0,7.94141 0.83593,1.35742 2.51172,12.06642 c 0.64532,3.10281 -0.65618,4.26429 -2.03125,5.37109 0.39582,0.27576 0.68315,0.50534 0.95703,1.0625 0.27204,0.55716 0.39134,2.17402 0.0762,2.89062 -0.87419,1.99601 -3.82893,1.99601 -4.70312,0 -0.31326,-0.7166 -0.19381,-2.33346 0.0801,-2.89062 0.27201,-0.55716 0.55926,-0.78674 0.95508,-1.0625 -1.37507,-1.1068 -2.67852,-2.26827 -2.0332,-5.37109 l 2.51562,-12.06642 z" />
  <path
     id="path475-4-4"
     style="fill:#de7815;fill-opacity:1;stroke-width:1.08587"
     d="m 414.36037,-164.39548 c -0.13882,6.08182 2.31791,12.67098 6.91211,16.44726 l 11.3789,9.35352 0.0469,1.88867 -7.14062,-5.57422 c -0.03,5.09882 1.70992,10.53757 5.43555,13.77734 l 8.92968,7.75977 c 0.9092,-6.32111 3.01434,-12.28851 6.06055,-17.63867 -0.0239,-0.52432 -0.0576,-1.02851 -0.0606,-1.59571 z m 31.62305,26.01367 c 0.29123,6.38096 2.07633,9.7029 4.49804,11.7207 l 0.0937,7.32617 2.11914,3.82422 6.3125,4.79102 -1.88867,2.21093 0.64453,3.59571 30.50196,23.220701 -6.12696,12.394531 -11.33593,-9.167969 c -0.81791,-0.66221 -1.45584,-1.76197 -1.42774,-2.8125 l 0.0918,-3.316406 c 0.0507,-1.79153 -1.12624,-3.635534 -2.5332,-4.746094 l -25.66407,-20.226563 c -0.64091,-0.50495 -1.24233,-1.07443 -1.79687,-1.69336 0.29015,8.33645 2.0593,15.230451 4.93359,21.474611 5.09967,11.26176 14.0963,21.141958 22.82227,32.44531 l -0.0176,0.0234 c 2.82325,3.69195 5.75487,7.92803 8.57812,12.27148 10.20715,15.74507 7.3852,25.08204 13.90039,25.08204 6.5152,0 3.68934,-9.44831 13.89649,-25.19336 16.29462,-25.500068 35.16049,-37.397061 36.11523,-66.119141 -0.5586,0.62535 -1.1659,1.19955 -1.8125,1.70898 l -25.66211,20.226563 c -1.40884,1.11056 -2.58585,2.954564 -2.53515,4.746094 l 0.0918,3.316406 c 0.0281,1.05053 -0.6117,2.15029 -1.42773,2.8125 l -11.33398,9.167969 -6.12891,-12.394531 30.50195,-23.220701 0.64453,-3.59571 -1.88867,-2.21093 6.3125,-4.79102 2.11914,-3.82422 0.0918,-7.32617 c 2.42122,-2.01739 4.20797,-5.33836 4.5,-11.7168 -0.44275,-0.77885 -0.90255,-1.54572 -1.38477,-2.29687 -0.19992,5.00869 -1.0497,10.7171 -4.8496,13.74023 l -9.42188,7.4961 c -1.76526,1.40508 -2.73693,4.97548 -1.23242,6.6582 l 3.74804,4.19336 c 0.65846,0.73537 0.64524,2.36807 -0.14453,2.95898 l -29.84375,22.343754 3.89649,-16.671875 3.1582,-3.896489 c 3.40297,-0.23074 6.43707,0.2813 9.32227,-1.33203 1.30003,-0.72786 1.92306,-3.08132 1.42968,-4.48828 -0.741,-2.11044 -2.18807,-3.68284 -4.29101,-5.32617 l 0.0977,-4.04492 2.64063,-2.09961 c -2.85482,-6.38904 -9.21678,-10.82227 -16.70117,-10.82227 -5.71672,0 -10.69277,2.59177 -14.13086,6.55078 -1.08696,1.25419 -1.96631,2.68982 -2.64453,4.24219 l 2.67773,2.12891 0.0977,4.04492 c -2.10481,1.64333 -3.55002,3.21573 -4.29102,5.32617 -0.49338,1.40696 0.12973,3.76042 1.43164,4.48828 2.88521,1.61333 5.91735,1.10129 9.32032,1.33203 l 3.1582,3.896489 3.89648,16.671875 -29.84179,-22.343754 c -0.79165,-0.59091 -0.80689,-2.22361 -0.14844,-2.95898 l 3.75,-4.19336 c 1.50451,-1.68272 0.5309,-5.25312 -1.23437,-6.6582 l -9.41993,-7.4961 c -3.80286,-3.02548 -4.6491,-8.74046 -4.84961,-13.75195 -0.48318,0.75254 -0.9408,1.52495 -1.38476,2.30469 z m 1.38476,-2.30469 c 0.10246,-0.15959 0.21418,-0.31239 0.31836,-0.4707 l -0.35156,-0.2793 c 0.007,0.24532 0.0232,0.50074 0.0332,0.75 z m 0.31836,-0.4707 23.7461,18.88086 c 0.7298,-1.54303 1.65695,-2.97166 2.75976,-4.24414 3.72864,-4.29359 9.17651,-7.13282 15.4043,-7.13282 7.98879,0 14.85604,4.66271 18.08594,11.40821 l 23.79101,-18.91602 c -6.26393,-9.51237 -15.65723,-16.69353 -26.69336,-20.18359 -4.77781,-1.52022 -9.98978,-2.38867 -15.31055,-2.38867 -15.3107,0 -29.10023,6.95071 -38.33007,17.91796 -1.23833,1.47861 -2.38637,3.03718 -3.45313,4.65821 z m 83.78711,-0.004 c 0.10615,0.16121 0.2101,0.32378 0.31445,0.48633 0.0101,-0.25322 0.0262,-0.51256 0.0332,-0.76172 z m 1.69922,2.7832 c 0.31613,0.55612 0.63039,1.11392 0.92578,1.68359 2.53861,4.92337 4.29527,10.28961 5.11524,15.96875 l 8.94921,-7.77734 c 3.72563,-3.23977 5.46557,-8.67852 5.43555,-13.77734 l -7.14062,5.57422 0.0469,-1.88868 11.37891,-9.35351 c 4.59419,-3.77628 7.05093,-10.36545 6.91211,-16.44727 l -31.56253,24.41796 c -0.003,0.56859 -0.0365,1.07412 -0.0606,1.59961 z m 6.04102,17.65234 -1.97071,1.71289 v 1.75196 l 2.19141,-1.75391 c -0.0627,-0.57393 -0.13874,-1.14329 -0.2207,-1.71094 z m 0.2207,1.71094 c 0.19532,1.78918 0.31055,3.60353 0.31055,5.44922 0,0.77762 -0.0199,1.53518 -0.0449,2.28906 2.51248,-2.81274 4.02433,-6.69802 3.53321,-10.77734 z m -99.96289,7.75391 c -0.0277,-0.79678 -0.0606,-1.58991 -0.0606,-2.41406 0,-1.80478 0.10998,-3.58684 0.30078,-5.34766 l -3.78906,-3.03125 c -0.49208,4.0873 1.0275,7.97894 3.54882,10.79297 z m 0.24023,-7.76172 2.20117,1.76172 v -1.75196 l -1.99023,-1.73047 c -0.082,0.57005 -0.14858,1.14515 -0.21094,1.7207 z m 47.39258,-7.90625 c 0.71281,3.12908 0.52447,6.92973 0.78711,10.39648 0.56091,-0.31891 1.12471,-0.63616 1.6875,-0.95507 0.56091,0.31891 1.12268,0.63616 1.68359,0.95507 0.26264,-3.46675 0.0762,-7.2674 0.78906,-10.39648 0.62283,4.2584 1.13828,8.57394 1.46094,12.98242 -0.71286,0.45022 -1.42386,0.90126 -2.13672,1.34961 -0.20635,3.03528 -1.74057,7.02677 -1.79687,8.76953 -0.0563,-1.74276 -1.59248,-5.73425 -1.79883,-8.76953 -0.71286,-0.44835 -1.42386,-0.89939 -2.13672,-1.34961 0.32454,-4.40848 0.83812,-8.72402 1.46094,-12.98242 z m -35.11524,1.72656 9.34376,7.35742 c 1.01302,0.79915 1.27054,2.81379 0.48828,3.8418 l -1.75782,2.3125 -7.0664,-5.63281 c -0.71849,-0.57216 -1.08542,-1.61985 -1.07422,-2.53906 z m 75.17774,0 0.0664,5.33985 c 0.0112,0.91921 -0.3577,1.9669 -1.07618,2.53906 l -7.06445,5.63281 -1.75781,-2.3125 c -0.78039,-1.02801 -0.52473,-3.04265 0.48828,-3.8418 z m -42.22266,13.41015 c 0.90046,0.0413 1.60256,1.03599 1.95899,1.86328 l 2.65234,6.16797 -3.94336,-2.82031 h -6.88281 l 1.81641,-1.48242 4.77929,-0.54883 v -1.09961 c 0,-1.05991 -2.08405,0.0224 -3.17773,-0.43164 0.93047,-0.54965 1.71633,-1.69724 2.79687,-1.64844 z m 9.26758,0 c 1.08054,-0.0488 1.86453,1.09879 2.79688,1.64844 -1.09557,0.45394 -3.17969,-0.62827 -3.17969,0.43164 v 1.09961 l 4.78125,0.54883 1.81445,1.48242 h -6.88281 l -3.94336,2.82031 2.65625,-6.16797 c 0.35455,-0.82729 1.05658,-1.82198 1.95703,-1.86328 z m -10.41211,7.5918 5.7793,1.9707 5.77734,-1.9707 -3.04687,3.08203 -2.73047,12.474609 -2.73242,-12.474609 z m -31.86133,4.984373 14.5254,11.326172 c 0.87793,0.68471 1.59765,1.819201 1.59765,2.931641 v 4.398437 l -14.16797,-11.416015 c -0.97549,-0.78602 -1.77917,-2.03585 -1.82226,-3.28711 z m 75.2793,0 -0.13281,3.953125 c -0.0431,1.25126 -0.84678,2.50109 -1.82227,3.28711 l -14.16797,11.416015 v -4.398437 c 0,-1.11244 0.71972,-2.246931 1.59766,-2.931641 z m -37.63867,18.898438 7.18164,13.847656 -3.75,2.873044 -1.63867,-8.218747 -1.79297,-2.236328 -1.79492,2.236328 -1.63672,8.218747 -3.75196,-2.873044 z m 0,7.941406 0.83594,1.357422 2.51171,12.066412 c 0.64532,3.10281 -0.65618,4.26429 -2.03125,5.37109 0.39582,0.27576 0.68316,0.50534 0.95704,1.0625 0.27204,0.55716 0.39133,2.17402 0.0762,2.89062 -0.87419,1.99601 -3.82894,1.99601 -4.70313,0 -0.31326,-0.7166 -0.19381,-2.33346 0.0801,-2.89062 0.27201,-0.55716 0.55926,-0.78674 0.95508,-1.0625 -1.37507,-1.1068 -2.67852,-2.26827 -2.0332,-5.37109 l 2.51562,-12.066412 z" />
  <path
     id="path1402"
     style="stroke-width:1.08587"
     d="m -124.1476,6.176947 c -15.31071,0 -29.10022,6.94877 -38.33008,17.91602 -0.89299,1.06625 -1.7439,2.1729 -2.54883,3.31445 l 22.36914,20.55469 c 0.76805,-1.73008 1.76449,-3.33432 2.98633,-4.74414 v -0.002 c 3.78034,-4.35312 9.31213,-7.23438 15.63086,-7.23438 8.28192,0 15.38479,4.93859 18.56836,12.02735 l 22.41016,-20.59375 c -6.24673,-8.84721 -15.26287,-15.52514 -25.77539,-18.84961 -4.77781,-1.52022 -9.98978,-2.38868 -15.31055,-2.38868 z m 41.08594,21.23829 c 1.30259,1.84485 2.49375,3.77728 3.54297,5.80078 2.74078,5.31546 4.58129,11.14043 5.30078,17.32617 l 3.1543,-2.89258 v -12.72656 l 9.90039,-9.08399 V 7.292187 Z m 8.84375,23.12695 -4.54102,4.16602 v 11.998041 l -43.38281,42.654292 -1.90625,1.87305 -1.90625,-1.875 -43.36524,-42.654295 V 54.708207 l -4.54687,-4.16993 c -0.21644,1.87362 -0.33985,3.77328 -0.33985,5.69727 0,9.447028 1.84513,17.04771 4.99414,23.88867 5.09966,11.26176 14.0963,21.141963 22.82227,32.445313 l -0.0195,0.0234 c 2.82326,3.69195 5.75682,7.92606 8.58008,12.26953 10.20714,15.74507 7.3852,25.08399 13.90039,25.08399 6.51521,0 3.68935,-9.44831 13.89649,-25.19336 16.72232,-26.169368 36.16015,-38.005902 36.16015,-68.410153 0,-1.96601 -0.12451,-3.89915 -0.3457,-5.80078 z m -99.64844,-0.004 c 0.98374,-8.51596 4.12435,-16.44333 8.83984,-23.13086 l -21.88867,-20.11514 v 18.54687 l 9.90039,9.08399 v 12.72656 z m 49.82617,-12.27139 c -5.62579,0 -10.5179,2.54973 -13.9043,6.44922 -1.23504,1.42534 -2.21657,3.0843 -2.92383,4.89062 l 2.10157,1.93164 -0.0391,13.119143 14.76563,13.664063 14.76953,-13.664063 -0.0391,-13.121093 0.41016,-0.37695 1.65234,-1.51758 c -2.6494,-6.67923 -9.1392,-11.375 -16.79297,-11.375 z m -9.98633,8.56836 9.98633,9.10156 9.98438,-9.10156 v 16.25781 l -9.98438,9.240235 -9.98633,-9.240235 z" />
  <g
     id="g1503"
     style="fill:url(#linearGradient1515);fill-opacity:1;filter:url(#filter1529)">
    <rect
       style="fill:url(#linearGradient1515);fill-opacity:1;stroke-width:0.379916"
       id="rect226"
       width="29.348351"
       height="16.000004"
       x="42.651649"
       y="160" />
    <rect
       style="fill:url(#linearGradient1515);fill-opacity:1;stroke-width:0.379916"
       id="rect226-0"
       width="29.525126"
       height="15.999995"
       x="120"
       y="160" />
    <circle
       style="fill:url(#linearGradient1515);fill-opacity:1;stroke-width:0.478596"
       id="path175-1-6-07"
       cx="96"
       cy="168"
       r="15.59146" />
    <circle
       style="fill:url(#linearGradient1515);fill-opacity:1;stroke-width:0.478596"
       id="path175-1-6-07-2"
       cx="176"
       cy="168"
       r="15.59146" />
    <circle
       style="fill:url(#linearGradient1515);fill-opacity:1;stroke-width:0.478596"
       id="path175-1-6-07-1"
       cx="16"
       cy="168"
       r="15.59146" />
    <path
       d="M 109.54816,76.597188 V 54.534816 L 95.999154,66.884214 82.446721,54.534816 v 22.062372 l 13.552432,12.538821 z m 6.99635,-16.19568 -0.5563,0.511933 0.0529,17.804844 L 95.999154,97.262006 75.960596,78.719982 76.013496,60.915138 10.676159,0.87284441 V 26.042626 l 13.434688,12.325505 v 17.27074 l 10.443326,9.579872 v 16.277603 l 58.846086,57.881944 2.586941,2.54599 2.586941,-2.54257 58.871689,-57.883667 v -16.2793 l 10.44332,-9.579872 V 38.368131 L 181.32384,26.042626 V 0.87284441 Z"
       fill="#ffffff"
       id="path1431"
       style="fill:url(#linearGradient1515);stroke-width:1.70642;fill-opacity:1" />
  </g>
  <path
     d="m 695.38562,-80.988598 v -22.062372 l -13.54901,12.349398 -13.55243,-12.349398 v 22.062372 l 13.55243,12.538821 z m 6.99635,-16.19568 -0.5563,0.511933 0.0529,17.804844 -20.04196,18.543718 -20.03856,-18.542021 0.0529,-17.804844 -65.33734,-60.042292 v 25.16978 l 13.43469,12.3255 v 17.27074 l 10.44332,9.579877 v 16.277603 l 58.84609,57.88195 2.58694,2.54599 2.58694,-2.54257 58.87169,-57.883673 v -16.2793 l 10.44332,-9.579877 v -17.27074 l 13.43469,-12.3255 v -25.16978 z"
     fill="#ffffff"
     id="path1489"
     style="fill:#000000;stroke-width:1.70642" />
  <use
     x="0"
     y="0"
     xlink:href="#g1503"
     id="use1505"
     transform="translate(240)"
     width="100%"
     height="100%" />
  <use
     x="0"
     y="0"
     xlink:href="#use1505"
     id="use1507"
     transform="translate(240)"
     width="100%"
     height="100%" />
</svg>
