<svg width="900" height="300" version="1.1" viewBox="0 0 900 300" xmlns="http://www.w3.org/2000/svg" xmlns:xlink="http://www.w3.org/1999/xlink">
 <defs>
  <linearGradient id="linearGradient1515" x1="2.4085" x2="191.59" y1="71.232" y2="92.232" gradientUnits="userSpaceOnUse">
   <stop stop-color="#f0913e" offset="0"/>
   <stop stop-color="#f30053" offset="1"/>
  </linearGradient>
  <filter id="filter1529" x="-1.8775e-5" y="-1.9645e-5" width="1" height="1" color-interpolation-filters="sRGB">
   <feGaussianBlur stdDeviation="0.0014956062"/>
  </filter>
  <linearGradient id="linearGradient846" x1="2.4085" x2="191.59" y1="71.232" y2="92.232" gradientUnits="userSpaceOnUse" xlink:href="#linearGradient1515"/>
 </defs>
 <g transform="matrix(.81392 0 0 .81392 367 70.933)" fill="url(#linearGradient846)" filter="url(#filter1529)">
  <rect x="42.652" y="160" width="29.348" height="16" stroke-width=".37992"/>
  <rect x="120" y="160" width="29.525" height="16" stroke-width=".37992"/>
  <g stroke-width=".4786">
   <circle cx="96" cy="168" r="15.591"/>
   <circle cx="176" cy="168" r="15.591"/>
   <circle cx="16" cy="168" r="15.591"/>
  </g>
  <path d="m109.55 76.597v-22.062l-13.549 12.349-13.552-12.349v22.062l13.552 12.539zm6.9964-16.196-0.5563 0.51193 0.0529 17.805-20.042 18.544-20.039-18.542 0.0529-17.805-65.337-60.042v25.17l13.435 12.326v17.271l10.443 9.5799v16.278l58.846 57.882 2.5869 2.546 2.5869-2.5426 58.872-57.884v-16.279l10.443-9.5799v-17.271l13.435-12.326v-25.17z" stroke-width="1.7064"/>
 </g>
 <text x="101.86425" y="171.28401" fill="#7e7e7e" font-family="sans-serif" font-size="43.409px" stroke-width=".81392" style="line-height:1.25" xml:space="preserve"><tspan x="101.86425" y="171.28401" fill="#7e7e7e" font-family="Rift" font-size="43.409px" stroke-width=".81392">Elite Dangerous                           Route Widget</tspan></text>
</svg>
