<svg width="900" height="300" version="1.1" viewBox="0 0 900 300" xmlns="http://www.w3.org/2000/svg" xmlns:xlink="http://www.w3.org/1999/xlink">
 <defs>
  <linearGradient id="linearGradient1515" x1="2.4085" x2="191.59" y1="71.232" y2="92.232" gradientUnits="userSpaceOnUse">
   <stop stop-color="#f0913e" offset="0"/>
   <stop stop-color="#f30053" offset="1"/>
  </linearGradient>
  <filter id="filter1529" x="-1.8775e-5" y="-1.9645e-5" width="1" height="1" color-interpolation-filters="sRGB">
   <feGaussianBlur stdDeviation="0.0014956062"/>
  </filter>
  <linearGradient id="linearGradient846" x1="2.4085" x2="191.59" y1="71.232" y2="92.232" gradientUnits="userSpaceOnUse" xlink:href="#linearGradient1515"/>
 </defs>
 <g transform="matrix(.81392 0 0 .81392 367 72.933)" fill="url(#linearGradient846)" filter="url(#filter1529)">
  <rect x="42.652" y="160" width="29.348" height="16" stroke-width=".37992"/>
  <rect x="120" y="160" width="29.525" height="16" stroke-width=".37992"/>
  <g stroke-width=".4786">
   <circle cx="96" cy="168" r="15.591"/>
   <circle cx="176" cy="168" r="15.591"/>
   <circle cx="16" cy="168" r="15.591"/>
  </g>
  <path d="m109.55 76.597v-22.062l-13.549 12.349-13.552-12.349v22.062l13.552 12.539zm6.9964-16.196-0.5563 0.51193 0.0529 17.805-20.042 18.544-20.039-18.542 0.0529-17.805-65.337-60.042v25.17l13.435 12.326v17.271l10.443 9.5799v16.278l58.846 57.882 2.5869 2.546 2.5869-2.5426 58.872-57.884v-16.279l10.443-9.5799v-17.271l13.435-12.326v-25.17z" stroke-width="1.7064"/>
 </g>
 <g fill="#7e7e7e" stroke-width=".81392" aria-label="Elite Dangerous                               Route Widget">
  <path d="m100.8 225.28v-2.1704h-9.7236v-12.155h8.2477v-2.1704h-8.2477v-11.72h9.5934v-2.1704h-11.937v30.386z"/>
  <path d="m116.81 223.11h-9.0725v-28.216h-2.3441v30.386h11.417z"/>
  <path d="m123.07 225.28v-30.386h-2.3441v30.386z"/>
  <path d="m140.73 194.9h-13.804v2.1704h5.73v28.216h2.3441v-28.216h5.73z"/>
  <path d="m156.45 225.28v-2.1704h-9.7236v-12.155h8.2477v-2.1704h-8.2477v-11.72h9.5934v-2.1704h-11.937v30.386z"/>
  <path d="m175.07 194.9h-7.0757v30.386h7.0757c4.6014 0 6.9454-2.1704 6.9454-6.4245v-17.537c0-4.2541-2.3441-6.4245-6.9454-6.4245zm4.6014 7.2059v15.975c0 3.6029-1.3457 5.0354-4.775 5.0354h-4.5579v-26.045h4.5579c3.4293 0 4.775 1.4325 4.775 5.0354z"/>
  <path d="m199.25 225.28h2.4309l-6.8586-30.386h-2.6914l-6.7718 30.386h2.3441l1.693-7.8136h8.1609zm-9.3763-9.9407 3.6029-16.756 3.603 16.756z"/>
  <path d="m207.84 225.28v-25.004l10.071 25.004h2.3007v-30.386h-2.2573v24.83l-9.9407-24.83h-2.4309v30.386z"/>
  <path d="m240.01 210.22h-7.2927v2.127h4.9486v6.0773c0 3.603-1.3457 5.0354-4.775 5.0354s-4.775-1.4325-4.775-5.0354v-16.669c0-3.6029 1.3457-5.0354 4.775-5.0354s4.775 1.4325 4.775 5.0354v3.2123h2.3441v-3.9936c0-4.1673-2.3441-6.4245-6.9454-6.4245h-0.34727c-4.6014 0-6.9454 2.2573-6.9454 6.4245v18.232c0 4.3843 2.3441 6.4245 6.9454 6.4245h0.34727c4.6014 0 6.9454-2.0836 6.9454-6.4245z"/>
  <path d="m257.55 225.28v-2.1704h-9.7236v-12.155h8.2477v-2.1704h-8.2477v-11.72h9.5934v-2.1704h-11.937v30.386z"/>
  <path d="m277.3 225.28-5.2091-13.457c2.7782-0.73795 4.1673-2.7782 4.1673-6.0773v-4.4277c0-4.2541-2.3441-6.4245-6.9454-6.4245h-7.1625v30.386h2.3441v-13.11h5.2959l4.992 13.11zm-8.1609-15.237h-4.6448v-12.979h4.6448c3.4293 0 4.775 1.4325 4.775 5.0354v2.9084c0 3.5595-1.3457 5.0354-4.775 5.0354z"/>
  <path d="m281.29 200.97v18.232c0 4.2541 2.3441 6.4245 6.9454 6.4245h0.34727c4.6014 0 6.9454-2.1704 6.9454-6.4245v-18.232c0-4.2541-2.3441-6.4245-6.9454-6.4245h-0.34727c-4.6014 0-6.9454 2.127-6.9454 6.4245zm2.3441 17.45v-16.669c0-3.6029 1.3457-5.0354 4.775-5.0354s4.775 1.4325 4.775 5.0354v16.669c0 3.603-1.3457 5.0354-4.775 5.0354s-4.775-1.4325-4.775-5.0354z"/>
  <path d="m314.89 194.9h-2.3441v23.528c0 3.603-1.172 5.0354-4.6014 5.0354s-4.6014-1.4325-4.6014-5.0354v-23.528h-2.3441v24.309c0 4.3843 2.2573 6.4245 6.8586 6.4245h0.17364c4.6014 0 6.8586-2.0836 6.8586-6.4245z"/>
  <path d="m333.56 205.4v-4.6014c0-4.1673-2.6045-6.2509-6.7718-6.2509h-0.0868c-4.1673 0-6.7718 2.0836-6.7718 6.2509v3.5161c0 2.4309 1.0852 3.603 3.603 5.0354l4.5579 2.4743c2.3007 1.3023 3.2123 2.0836 3.2123 4.3409v2.4309c0 3.2991-1.2154 4.9052-4.5145 4.9052-3.2991 0-4.5145-1.6061-4.5145-4.9052v-4.2541h-2.3441v4.9486c0 4.3843 2.2139 6.3377 6.8152 6.3377h0.0868c4.6014 0 6.8152-1.9968 6.8152-6.3377v-3.9068c0-2.3007-1.5193-3.9936-3.6464-5.1223l-4.6448-2.5611c-2.3007-1.2155-3.082-1.8232-3.082-4.0804v-2.127c0-3.3425 1.2154-4.8184 4.4711-4.8184 3.2557 0 4.4711 1.4759 4.4711 4.8184v3.9068z"/>
  <path d="m569.14 225.28-5.2091-13.457c2.7782-0.73795 4.1673-2.7782 4.1673-6.0773v-4.4277c0-4.2541-2.3441-6.4245-6.9454-6.4245h-7.1625v30.386h2.3441v-13.11h5.2959l4.992 13.11zm-8.1609-15.237h-4.6448v-12.979h4.6448c3.4293 0 4.775 1.4325 4.775 5.0354v2.9084c0 3.5595-1.3457 5.0354-4.775 5.0354z"/>
  <path d="m573.13 200.97v18.232c0 4.2541 2.3441 6.4245 6.9454 6.4245h0.34727c4.6014 0 6.9454-2.1704 6.9454-6.4245v-18.232c0-4.2541-2.3441-6.4245-6.9454-6.4245h-0.34727c-4.6014 0-6.9454 2.127-6.9454 6.4245zm2.3441 17.45v-16.669c0-3.6029 1.3457-5.0354 4.775-5.0354 3.4293 0 4.775 1.4325 4.775 5.0354v16.669c0 3.603-1.3457 5.0354-4.775 5.0354-3.4293 0-4.775-1.4325-4.775-5.0354z"/>
  <path d="m606.73 194.9h-2.3441v23.528c0 3.603-1.172 5.0354-4.6014 5.0354s-4.6014-1.4325-4.6014-5.0354v-23.528h-2.3441v24.309c0 4.3843 2.2573 6.4245 6.8586 6.4245h0.17363c4.6014 0 6.8586-2.0836 6.8586-6.4245z"/>
  <path d="m624.09 194.9h-13.804v2.1704h5.73v28.216h2.3441v-28.216h5.73z"/>
  <path d="m639.81 225.28v-2.1704h-9.7236v-12.155h8.2477v-2.1704h-8.2477v-11.72h9.5934v-2.1704h-11.937v30.386z"/>
  <path d="m674.79 194.9h-2.3007l-4.1238 25.611-5.1657-25.611h-2.3007l-5.2091 25.611-4.0804-25.611h-2.4309l5.1223 30.386h2.3875l5.3393-25.785 5.2959 25.785h2.3441z"/>
  <path d="m681.3 225.28v-30.386h-2.3441v30.386z"/>
  <path d="m694.33 194.9h-7.0757v30.386h7.0757c4.6014 0 6.9454-2.1704 6.9454-6.4245v-17.537c0-4.2541-2.3441-6.4245-6.9454-6.4245zm4.6014 7.2059v15.975c0 3.6029-1.3457 5.0354-4.775 5.0354h-4.5579v-26.045h4.5579c3.4293 0 4.775 1.4325 4.775 5.0354z"/>
  <path d="m720.89 210.22h-7.2927v2.127h4.9486v6.0773c0 3.603-1.3457 5.0354-4.775 5.0354s-4.775-1.4325-4.775-5.0354v-16.669c0-3.6029 1.3457-5.0354 4.775-5.0354s4.775 1.4325 4.775 5.0354v3.2123h2.3441v-3.9936c0-4.1673-2.3441-6.4245-6.9454-6.4245h-0.34727c-4.6014 0-6.9454 2.2573-6.9454 6.4245v18.232c0 4.3843 2.3441 6.4245 6.9454 6.4245h0.34727c4.6014 0 6.9454-2.0836 6.9454-6.4245z"/>
  <path d="m738.43 225.28v-2.1704h-9.7236v-12.155h8.2477v-2.1704h-8.2477v-11.72h9.5934v-2.1704h-11.937v30.386z"/>
  <path d="m754.75 194.9h-13.804v2.1704h5.73v28.216h2.3441v-28.216h5.73z"/>
 </g>
 <g fill="#7e7e7e" stroke-width=".81392" aria-label="by CMDR Yori Mirano">
  <path d="m560.28 235 0.24-1.408c0.256-1.408-0.768-2.208-2.304-2.208h-2.928l-1.968 11.2h2.896c1.856 0 2.928-0.8 3.168-2.208l0.336-1.84c0.144-0.864-0.128-1.632-1.008-1.776 0.912-0.112 1.408-0.8 1.568-1.76zm-3.408-2.016h1.04c0.528 0 0.816 0.272 0.704 0.864l-0.224 1.296c-0.112 0.592-0.496 0.864-1.024 0.864h-1.04zm1.008 5.456-0.304 1.68c-0.096 0.592-0.48 0.864-1.008 0.864h-1.104l0.592-3.408h1.104c0.528 0 0.816 0.272 0.72 0.864z"/>
  <path d="m564.36 238.6 3.52-7.216h-1.968l-2.16 5.2-0.336-5.2h-1.904l0.992 7.216-0.704 3.984h1.856z"/>
  <path d="m575.64 238.03h-1.856l-0.352 2.032c-0.144 0.784-0.56 1.024-1.152 1.024s-0.944-0.24-0.8-1.024l1.088-6.144c0.128-0.784 0.56-1.024 1.152-1.024s0.928 0.24 0.8 1.024l-0.32 1.76h1.856l0.368-2.048c0.288-1.664-0.864-2.368-2.4-2.368h-0.032c-1.856 0-2.944 0.704-3.232 2.368l-1.184 6.72c-0.32 1.744 0.864 2.368 2.4 2.368h0.032c1.856 0 2.928-0.64 3.232-2.368z"/>
  <path d="m583.64 235.74-1.2 6.848h1.792l1.968-11.2h-1.856l-3.312 6.512-1.024-6.512h-1.728l-1.968 11.2h1.728l1.2-6.848 0.768 5.216h1.04z"/>
  <path d="m590.66 231.39h-2.864l-1.968 11.2h2.864c1.856 0 2.928-0.672 3.232-2.368l1.136-6.464c0.304-1.696-0.864-2.368-2.4-2.368zm0.496 2.656-1.04 5.888c-0.144 0.8-0.592 1.024-1.2 1.024h-0.944l1.392-7.936h0.944c0.608 0 0.992 0.224 0.848 1.024z"/>
  <path d="m597.91 231.39h-2.896l-1.968 11.2h1.856l0.784-4.464h0.992l0.624 4.464h1.84l-0.752-4.72c0.848-0.336 1.376-1.008 1.568-2.112l0.352-2c0.304-1.696-0.864-2.368-2.4-2.368zm0.496 2.656-0.256 1.456c-0.144 0.8-0.592 1.024-1.2 1.024h-0.976l0.608-3.504h0.976c0.608 0 0.992 0.224 0.848 1.024z"/>
  <path d="m606.81 238.6 3.52-7.216h-1.968l-2.16 5.2-0.336-5.2h-1.904l0.992 7.216-0.704 3.984h1.856z"/>
  <path d="m610.65 233.63-1.184 6.72c-0.304 1.696 0.864 2.368 2.4 2.368h0.128c1.856 0 2.928-0.672 3.232-2.368l1.184-6.72c0.288-1.696-0.864-2.368-2.4-2.368h-0.128c-1.856 0-2.928 0.656-3.232 2.368zm0.72 6.432 1.088-6.144c0.128-0.8 0.592-1.024 1.2-1.024s0.976 0.224 0.848 1.024l-1.088 6.144c-0.144 0.8-0.592 1.024-1.2 1.024s-0.992-0.224-0.848-1.024z"/>
  <path d="m621.22 231.39h-2.896l-1.968 11.2h1.856l0.784-4.464h0.992l0.624 4.464h1.84l-0.752-4.72c0.848-0.336 1.376-1.008 1.568-2.112l0.352-2c0.304-1.696-0.864-2.368-2.4-2.368zm0.496 2.656-0.256 1.456c-0.144 0.8-0.592 1.024-1.2 1.024h-0.976l0.608-3.504h0.976c0.608 0 0.992 0.224 0.848 1.024z"/>
  <path d="m625.49 242.59 1.968-11.2h-1.856l-1.968 11.2z"/>
  <path d="m637.05 235.74-1.2 6.848h1.792l1.968-11.2h-1.856l-3.312 6.512-1.024-6.512h-1.728l-1.968 11.2h1.728l1.2-6.848 0.768 5.216h1.04z"/>
  <path d="m641.16 242.59 1.968-11.2h-1.856l-1.968 11.2z"/>
  <path d="m647.69 231.39h-2.896l-1.968 11.2h1.856l0.784-4.464h0.992l0.624 4.464h1.84l-0.752-4.72c0.848-0.336 1.376-1.008 1.568-2.112l0.352-2c0.304-1.696-0.864-2.368-2.4-2.368zm0.496 2.656-0.256 1.456c-0.144 0.8-0.592 1.024-1.2 1.024h-0.976l0.608-3.504h0.976c0.608 0 0.992 0.224 0.848 1.024z"/>
  <path d="m655.89 242.59-0.144-11.2h-2.336l-4.048 11.2h1.84l0.832-2.496h2.064l-0.048 2.496zm-3.344-4.032 1.664-4.976-0.096 4.976z"/>
  <path d="m658.52 242.59 1.28-7.28 1.2 7.28h1.728l1.968-11.2h-1.696l-1.216 6.928-1.168-6.928h-1.824l-1.968 11.2z"/>
  <path d="m665.85 233.63-1.184 6.72c-0.304 1.696 0.864 2.368 2.4 2.368h0.128c1.856 0 2.928-0.672 3.232-2.368l1.184-6.72c0.288-1.696-0.864-2.368-2.4-2.368h-0.128c-1.856 0-2.928 0.656-3.232 2.368zm0.72 6.432 1.088-6.144c0.128-0.8 0.592-1.024 1.2-1.024s0.976 0.224 0.848 1.024l-1.088 6.144c-0.144 0.8-0.592 1.024-1.2 1.024s-0.992-0.224-0.848-1.024z"/>
 </g>
</svg>
